<svg width="153" height="312" viewBox="0 0 153 312" fill="none" xmlns="http://www.w3.org/2000/svg">
<path d="M1.61934 0.76892C41.9291 1.91336 80.2178 18.6726 108.406 47.5102C136.594 76.3478 152.478 115.008 152.704 155.334C152.93 195.659 137.482 234.495 109.619 263.647C81.7564 292.8 43.6582 309.987 3.36379 311.584L2.39378 287.107C36.3404 285.762 68.4369 271.282 91.9104 246.722C115.384 222.162 128.398 189.444 128.208 155.471C128.017 121.498 114.636 88.9282 90.8884 64.6335C67.1407 40.3388 34.8838 26.2197 0.924137 25.2555L1.61934 0.76892Z" fill="url(#paint0_linear_1_5)" fill-opacity="0.2"/>
<defs>
<linearGradient id="paint0_linear_1_5" x1="56.7746" y1="12.5683" x2="-62.362" y2="299.844" gradientUnits="userSpaceOnUse">
<stop stop-color="#1470F9"/>
<stop offset="1" stop-color="white"/>
</linearGradient>
</defs>
</svg>
